<?xml version="1.0" encoding="UTF-8" standalone="no"?>
<!DOCTYPE svg PUBLIC "-//W3C//DTD SVG 20010904//EN" "http://www.w3.org/TR/2001/REC-SVG-20010904/DTD/svg10.dtd">

<svg xmlns="http://www.w3.org/2000/svg" width="2.77778in" height="2.77778in" fill="#0c1016" viewBox="0 0 200 200">
    <path d="M 0.00,140.00
        C 50.00,160.00 50.00,80.00 0.00,100.00
        0.00,100.00 0.00,60.00 0.00,60.00
        0.00,50.00 10.00,40.00 20.00,40.00
        20.00,40.00 60.00,40.00 60.00,40.00
        40.00,-10.00 120.00,-10.00 100.00,40.00
        100.00,40.00 140.00,40.00 140.00,40.00
        150.00,40.00 160.00,50.00 160.00,60.00
        160.00,60.00 160.00,100.00 160.00,100.00
        210.00,80.00 210.00,160.00 160.00,140.00
        160.00,140.00 160.00,180.00 160.00,180.00
        160.00,190.00 150.00,200.00 140.00,200.00
        140.00,200.00 100.00,200.00 100.00,200.00
        120.00,150.00 40.00,150.00 60.00,200.00
        60.00,200.00 20.00,200.00 20.00,200.00
        10.00,200.00 0.00,190.00 0.00,180.00
        0.00,180.00 0.00,140.00 0.00,140.00 Z" />
</svg>