<?xml version="1.0" encoding="UTF-8" standalone="no"?>
<!DOCTYPE svg PUBLIC "-//W3C//DTD SVG 20010904//EN" "http://www.w3.org/TR/2001/REC-SVG-20010904/DTD/svg10.dtd">

<svg xmlns="http://www.w3.org/2000/svg" width="3.55556in" height="3in" viewBox="0 0 320 270">
    <path id="ReGuildedBase" d="M 63.71,74.27
        C 64.85,99.23 70.97,122.87 81.10,144.21
            98.57,178.46 122.86,200.34 142.86,208.97
            163.43,198.90 183.43,181.63 194.57,163.21
            194.57,163.21 137.71,163.21 137.71,163.21
            122.86,150.54 111.43,129.82 108.57,105.65
            108.57,105.65 277.71,105.65 277.71,105.65
            270.18,141.33 255.34,174.30 234.88,202.92
            211.92,233.91 180.41,258.12 143.87,272.00
            143.87,272.00 142.00,272.00 142.00,272.00
            81.71,247.25 49.43,208.39 28.00,164.65
            14.29,136.44 0.00,85.50 0.00,17.00
            0.00,17.00 156.00,17.00 156.00,17.00
            156.00,17.00 156.00,74.00 156.00,74.00
            156.00,74.00 63.71,74.56 63.71,74.56
            63.71,74.56 63.71,74.27 63.71,74.27 Z
        M 171.00,17.00
        C 171.00,17.00 227.00,17.00 227.00,17.00
            227.00,17.00 227.00,74.00 227.00,74.00
            227.00,74.00 171.00,74.00 171.00,74.00
            171.00,74.00 171.00,17.00 171.00,17.00 Z
        M 242.00,17.00
        C 242.00,17.00 268.00,17.00 268.00,17.00
            268.00,17.00 268.00,1.00 268.00,1.00
            268.00,1.00 319.00,43.00 319.00,43.00
            319.00,43.00 268.00,90.00 268.00,90.00
            268.00,90.00 268.00,74.00 268.00,74.00
            268.00,74.00 241.00,74.00 241.00,74.00
            241.00,74.00 242.00,17.00 242.00,17.00 Z" />
</svg>
