<?xml version="1.0" encoding="UTF-8" standalone="no"?>
<!DOCTYPE svg PUBLIC "-//W3C//DTD SVG 20010904//EN" "http://www.w3.org/TR/2001/REC-SVG-20010904/DTD/svg10.dtd">

<svg xmlns="http://www.w3.org/2000/svg" width="3.55556in" height="3.55556in" viewBox="0 0 320 320">
    <path id="ReGuildedBase" fill="#CC3333" d="M 63.71,99.27
        C 64.85,124.23 70.97,147.87 81.10,169.21
            98.57,203.46 122.86,225.34 142.86,233.97
            163.43,223.90 183.43,206.63 194.57,188.21
            194.57,188.21 137.71,188.21 137.71,188.21
            122.86,175.54 111.43,154.82 108.57,130.65
            108.57,130.65 277.71,130.65 277.71,130.65
            270.18,166.33 255.34,199.30 234.88,227.92
            211.92,258.91 180.41,283.12 143.87,297.00
            143.87,297.00 142.00,297.00 142.00,297.00
            81.71,272.25 49.43,233.39 28.00,189.65
            14.29,161.44 0.00,110.50 0.00,42.00
            0.00,42.00 156.00,42.00 156.00,42.00
            156.00,42.00 156.00,99.00 156.00,99.00
            156.00,99.00 63.71,99.56 63.71,99.56
            63.71,99.56 63.71,99.27 63.71,99.27 Z
        M 171.00,42.00
        C 171.00,42.00 227.00,42.00 227.00,42.00
            227.00,42.00 227.00,99.00 227.00,99.00
            227.00,99.00 171.00,99.00 171.00,99.00
            171.00,99.00 171.00,42.00 171.00,42.00 Z
        M 242.00,42.00
        C 242.00,42.00 268.00,42.00 268.00,42.00
            268.00,42.00 268.00,26.00 268.00,26.00
            268.00,26.00 319.00,68.00 319.00,68.00
            319.00,68.00 268.00,115.00 268.00,115.00
            268.00,115.00 268.00,99.00 268.00,99.00
            268.00,99.00 242.00,99.00 242.00,99.00
            242.00,99.00 242.00,42.00 242.00,42.00 Z" />
</svg>