<?xml version="1.0" encoding="utf-8"?>
<!-- Generator: Adobe Illustrator 24.3.0, SVG Export Plug-In . SVG Version: 6.00 Build 0)  -->
<svg version="1.1" id="Layer_1" xmlns="http://www.w3.org/2000/svg" xmlns:xlink="http://www.w3.org/1999/xlink" x="0px" y="0px"
	 viewBox="0 0 152 152" style="enable-background:new 0 0 152 152;" xml:space="preserve">
<style type="text/css">
	.st0{fill:#CC3333;}
</style>
<path class="st0" d="M135.5,46l-19,18v-8H108V36h8.5v-8L135.5,46z"/>
<path class="st0" d="M53.4,80.2c-3.6-7.6-5.7-15.8-6.1-24.2H80V36H25c0,23.8,5,41.5,9.8,51.3c7.5,15.2,18.8,28.7,39.9,37.3h0.6
	c12.7-4.8,23.8-13.1,31.9-24c7.3-10.1,12.4-21.6,15-33.8H63c1,8.4,5,15.6,10.2,20h19.9c-3.9,6.4-10.9,12.4-18.1,15.9
	C68,99.7,59.5,92.1,53.4,80.2z"/>
<path class="st0" d="M104,56H84V36h20V56z"/>
</svg>
