<?xml version="1.0" encoding="UTF-8" standalone="no"?>
<!DOCTYPE svg PUBLIC "-//W3C//DTD SVG 20010904//EN" "http://www.w3.org/TR/2001/REC-SVG-20010904/DTD/svg10.dtd">

<svg xmlns="http://www.w3.org/2000/svg" width="2.22222in" height="2.22222in" fill="#0c1016" viewBox="0 0 200 200">
    <path class="reguilded-sounds-speaker" d="M 104.00,20.00
        C 104.00,20.00 104.00,4.00 96.00,12.00
            96.00,12.00 32.00,68.00 32.00,68.00
            32.00,68.00 16.00,68.00 16.00,68.00
            8.00,68.00 0.00,76.00 0.00,84.00
            0.00,84.00 0.00,116.00 0.00,116.00
            0.00,124.00 8.00,132.00 16.00,132.00
            16.00,132.00 32.00,132.00 32.00,132.00
            32.00,132.00 96.00,188.00 96.00,188.00
            104.00,196.00 104.00,180.00 104.00,180.00
            104.00,180.00 104.00,20.00 104.00,20.00 Z" />
    <g class="reguilded-sounds-waves" fill="none" stroke="#0c1016" stroke-linecap="round" stroke-width="16">
        <path class="reguilded-sounds-wave-0" d="M 128.00,60.00
            C 172.00,76.00 172.00,124.00 128.00,140.00" />
        <path class="reguilded-sounds-wave-1" d="M 128.00,28.00
            C 212.00,44.00 212.00,156.00 128.00,172.00" />
    </g>
</svg>