<?xml version="1.0" encoding="UTF-8" standalone="no"?>
<!DOCTYPE svg PUBLIC "-//W3C//DTD SVG 20010904//EN" "http://www.w3.org/TR/2001/REC-SVG-20010904/DTD/svg10.dtd">

<svg xmlns="http://www.w3.org/2000/svg" width="2.48889in" height="2.48889in" fill="#0c1016" viewBox="0 0 224 224">
    <g class="reguilded-theme-brush">
        <path id="reguilded-theme-unpainted" d="M 160.00,64.00
            C 160.00,88.00 200.00,88.00 200.00,88.00
                200.00,88.00 168.00,120.00 168.00,120.00
                168.00,120.00 104.00,56.00 104.00,56.00
                104.00,56.00 128.00,32.00 128.00,32.00
                128.00,32.00 160.00,40.00 160.00,64.00 Z" />
        <path class="reguilded-theme-brush-base" fill="none" stroke-width="16" stroke="#0c1016" stroke-linejoin="round" d="M 168.00,120.00
            C 168.00,120.00 104.00,56.00 104.00,56.00
                104.00,56.00 152.00,8.00 152.00,8.00
                152.00,8.00 216.00,72.00 216.00,72.00
                216.00,72.00 168.00,120.00 168.00,120.00 Z" />
    </g>
    <path id="reguilded-theme-cap" d="M 88.00,64.00
        C 88.00,64.00 64.00,88.00 64.00,88.00
            64.00,88.00 136.00,160.00 136.00,160.00
            136.00,160.00 160.00,136.00 160.00,136.00
            160.00,136.00 88.00,64.00 88.00,64.00 Z" />
    <path class="reguilded-theme-handle" d="M 128.00,168.00
        C 128.00,168.00 120.00,176.00 120.00,176.00
            120.00,176.00 80.00,160.00 72.00,176.00
            72.00,176.00 56.00,192.00 56.00,192.00
            16.00,232.00 8.00,216.00 8.00,216.00
            8.00,216.00 -8.00,208.00 32.00,168.00
            32.00,168.00 48.00,152.00 48.00,152.00
            64.00,144.00 48.00,104.00 48.00,104.00
            48.00,104.00 56.00,96.00 56.00,96.00
            56.00,96.00 128.00,168.00 128.00,168.00 Z" />
</svg>